# xmcd
#
# Track frame offsets:
#	150
#	22228
#	41173
#	60645
#	83143
#	100249
#	114901
#	132122
#	148714
#	163404
#	190655
#
# Disc length: 3464 seconds
#
# Revision: 5
# Processed by: cddbd v1.5.2PL0 Copyright (c) Steve Scherf et al.
# Submitted via: EasyCDDAExtractor 12.0.4.1
#
DISCID=980d860b
DTITLE=HANGMAN
DYEAR=2007
DGENRE=Ska
TTITLE0=Hangman
TTITLE1=Chocolate
TTITLE2=พยายามกี่ครั้งก็ตามแต่
TTITLE3=ต้องลืมเสียที
TTITLE4=เพลงสีดำ
TTITLE5=ฉัน VS ซาตาน
TTITLE6=รักเธอหัวทิ่มบ่อ
TTITLE7=หมดเงินหมดใจ
TTITLE8=ไตรกีฬา
TTITLE9=สัญญาณในใจ
TTITLE10=movie
EXTD=Thai Rock
EXTT0=
EXTT1=
EXTT2=
EXTT3=
EXTT4=
EXTT5=
EXTT6=
EXTT7=
EXTT8=
EXTT9=
EXTT10=
PLAYORDER=
